<mxfile host="app.diagrams.net" agent="Mozilla/5.0 (Windows NT 10.0; Win64; x64) AppleWebKit/537.36 (KHTML, like Gecko) Chrome/129.0.0.0 Safari/537.36" version="24.7.16">
  <diagram name="Page-1" id="__CPDmkwys3tatlfhPFc">
    <mxGraphModel dx="1500" dy="1846" grid="1" gridSize="10" guides="1" tooltips="1" connect="1" arrows="1" fold="1" page="1" pageScale="1" pageWidth="850" pageHeight="1100" background="#000000" math="0" shadow="0">
      <root>
        <mxCell id="0" />
        <mxCell id="1" parent="0" />
        <mxCell id="GgyFdm7DhXLHvmsj2wza-6" style="edgeStyle=orthogonalEdgeStyle;rounded=0;orthogonalLoop=1;jettySize=auto;html=1;exitX=0.5;exitY=1;exitDx=0;exitDy=0;labelBackgroundColor=none;strokeColor=#23445D;fontColor=default;strokeWidth=4;" edge="1" parent="1" source="GgyFdm7DhXLHvmsj2wza-1" target="GgyFdm7DhXLHvmsj2wza-2">
          <mxGeometry relative="1" as="geometry" />
        </mxCell>
        <mxCell id="GgyFdm7DhXLHvmsj2wza-1" value="START" style="ellipse;whiteSpace=wrap;html=1;labelBackgroundColor=none;fillColor=#182E3E;strokeColor=#FFFFFF;fontColor=#FFFFFF;strokeWidth=4;" vertex="1" parent="1">
          <mxGeometry x="365" y="-1040" width="120" height="80" as="geometry" />
        </mxCell>
        <mxCell id="GgyFdm7DhXLHvmsj2wza-12" style="edgeStyle=orthogonalEdgeStyle;rounded=0;orthogonalLoop=1;jettySize=auto;html=1;exitX=0.5;exitY=1;exitDx=0;exitDy=0;entryX=0.5;entryY=0;entryDx=0;entryDy=0;labelBackgroundColor=none;strokeColor=#23445D;fontColor=default;strokeWidth=4;" edge="1" parent="1" source="GgyFdm7DhXLHvmsj2wza-2" target="GgyFdm7DhXLHvmsj2wza-11">
          <mxGeometry relative="1" as="geometry" />
        </mxCell>
        <mxCell id="GgyFdm7DhXLHvmsj2wza-2" value="INPUT jumlah pembelian dan harga barang" style="shape=parallelogram;perimeter=parallelogramPerimeter;whiteSpace=wrap;html=1;fixedSize=1;labelBackgroundColor=none;fillColor=#182E3E;strokeColor=#FFFFFF;fontColor=#FFFFFF;strokeWidth=4;" vertex="1" parent="1">
          <mxGeometry x="365" y="-910" width="120" height="60" as="geometry" />
        </mxCell>
        <mxCell id="GgyFdm7DhXLHvmsj2wza-18" style="edgeStyle=orthogonalEdgeStyle;rounded=0;orthogonalLoop=1;jettySize=auto;html=1;labelBackgroundColor=none;strokeColor=#23445D;fontColor=default;strokeWidth=4;" edge="1" parent="1" source="GgyFdm7DhXLHvmsj2wza-3" target="GgyFdm7DhXLHvmsj2wza-17">
          <mxGeometry relative="1" as="geometry" />
        </mxCell>
        <mxCell id="GgyFdm7DhXLHvmsj2wza-3" value="mendapatkan diskon 25%" style="rounded=0;whiteSpace=wrap;html=1;labelBackgroundColor=none;fillColor=#182E3E;strokeColor=#FFFFFF;fontColor=#FFFFFF;strokeWidth=4;" vertex="1" parent="1">
          <mxGeometry x="245" y="-560" width="120" height="60" as="geometry" />
        </mxCell>
        <mxCell id="GgyFdm7DhXLHvmsj2wza-8" value="ya" style="edgeStyle=orthogonalEdgeStyle;rounded=0;orthogonalLoop=1;jettySize=auto;html=1;exitX=0;exitY=0.5;exitDx=0;exitDy=0;labelBackgroundColor=none;strokeColor=#23445D;fontColor=#00ffbf;strokeWidth=4;fontStyle=1" edge="1" parent="1" source="GgyFdm7DhXLHvmsj2wza-4" target="GgyFdm7DhXLHvmsj2wza-3">
          <mxGeometry relative="1" as="geometry" />
        </mxCell>
        <mxCell id="GgyFdm7DhXLHvmsj2wza-9" value="tidak" style="edgeStyle=orthogonalEdgeStyle;rounded=0;orthogonalLoop=1;jettySize=auto;exitX=1;exitY=0.5;exitDx=0;exitDy=0;entryX=0.5;entryY=0;entryDx=0;entryDy=0;labelBackgroundColor=none;strokeColor=#23445D;fontColor=#FF9999;startSize=6;strokeWidth=4;" edge="1" parent="1" source="GgyFdm7DhXLHvmsj2wza-4" target="GgyFdm7DhXLHvmsj2wza-5">
          <mxGeometry relative="1" as="geometry" />
        </mxCell>
        <mxCell id="GgyFdm7DhXLHvmsj2wza-4" value="pembelian &amp;gt;= 250.000" style="rhombus;whiteSpace=wrap;html=1;labelBackgroundColor=none;fillColor=#182E3E;strokeColor=#FFFFFF;fontColor=#FFFFFF;strokeWidth=4;" vertex="1" parent="1">
          <mxGeometry x="350" y="-670" width="150" height="90" as="geometry" />
        </mxCell>
        <mxCell id="GgyFdm7DhXLHvmsj2wza-15" value="O" style="edgeStyle=orthogonalEdgeStyle;rounded=0;orthogonalLoop=1;jettySize=auto;html=1;exitX=0.5;exitY=1;exitDx=0;exitDy=0;labelBackgroundColor=none;strokeColor=#23445D;fontColor=default;strokeWidth=4;" edge="1" parent="1" source="GgyFdm7DhXLHvmsj2wza-5" target="GgyFdm7DhXLHvmsj2wza-14">
          <mxGeometry relative="1" as="geometry" />
        </mxCell>
        <mxCell id="GgyFdm7DhXLHvmsj2wza-5" value="tidak mendapatkan diskon" style="rounded=0;whiteSpace=wrap;html=1;labelBackgroundColor=none;fillColor=#182E3E;strokeColor=#FFFFFF;fontColor=#FFFFFF;strokeWidth=4;" vertex="1" parent="1">
          <mxGeometry x="540" y="-560" width="120" height="60" as="geometry" />
        </mxCell>
        <mxCell id="GgyFdm7DhXLHvmsj2wza-13" style="edgeStyle=orthogonalEdgeStyle;rounded=0;orthogonalLoop=1;jettySize=auto;html=1;exitX=0.5;exitY=1;exitDx=0;exitDy=0;entryX=0.5;entryY=0;entryDx=0;entryDy=0;labelBackgroundColor=none;strokeColor=#23445D;fontColor=default;strokeWidth=4;" edge="1" parent="1" source="GgyFdm7DhXLHvmsj2wza-11" target="GgyFdm7DhXLHvmsj2wza-4">
          <mxGeometry relative="1" as="geometry" />
        </mxCell>
        <mxCell id="GgyFdm7DhXLHvmsj2wza-11" value="menghitung total harga = jumlah pembelian * harga barang" style="rounded=0;whiteSpace=wrap;html=1;labelBackgroundColor=none;fillColor=#182E3E;strokeColor=#FFFFFF;fontColor=#FFFFFF;strokeWidth=4;" vertex="1" parent="1">
          <mxGeometry x="365" y="-790" width="120" height="60" as="geometry" />
        </mxCell>
        <mxCell id="GgyFdm7DhXLHvmsj2wza-25" style="edgeStyle=orthogonalEdgeStyle;rounded=0;orthogonalLoop=1;jettySize=auto;html=1;labelBackgroundColor=none;strokeColor=#23445D;fontColor=default;strokeWidth=4;" edge="1" parent="1" source="GgyFdm7DhXLHvmsj2wza-14" target="GgyFdm7DhXLHvmsj2wza-21">
          <mxGeometry relative="1" as="geometry">
            <Array as="points">
              <mxPoint x="410" y="-415" />
            </Array>
          </mxGeometry>
        </mxCell>
        <mxCell id="GgyFdm7DhXLHvmsj2wza-14" value="OUTPUT total harga barang" style="shape=parallelogram;perimeter=parallelogramPerimeter;whiteSpace=wrap;html=1;fixedSize=1;labelBackgroundColor=none;fillColor=#182E3E;strokeColor=#FFFFFF;fontColor=#FFFFFF;strokeWidth=4;" vertex="1" parent="1">
          <mxGeometry x="505" y="-450" width="190" height="70" as="geometry" />
        </mxCell>
        <mxCell id="GgyFdm7DhXLHvmsj2wza-20" style="edgeStyle=orthogonalEdgeStyle;rounded=0;orthogonalLoop=1;jettySize=auto;html=1;labelBackgroundColor=none;strokeColor=#23445D;fontColor=default;strokeWidth=4;" edge="1" parent="1" source="GgyFdm7DhXLHvmsj2wza-17" target="GgyFdm7DhXLHvmsj2wza-19">
          <mxGeometry relative="1" as="geometry" />
        </mxCell>
        <mxCell id="GgyFdm7DhXLHvmsj2wza-17" value="diskon= 25=% * pembelian&amp;nbsp;" style="rounded=0;whiteSpace=wrap;html=1;labelBackgroundColor=none;fillColor=#182E3E;strokeColor=#FFFFFF;fontColor=#FFFFFF;strokeWidth=4;" vertex="1" parent="1">
          <mxGeometry x="245" y="-460" width="120" height="60" as="geometry" />
        </mxCell>
        <mxCell id="GgyFdm7DhXLHvmsj2wza-27" style="edgeStyle=orthogonalEdgeStyle;rounded=0;orthogonalLoop=1;jettySize=auto;html=1;exitX=0.5;exitY=1;exitDx=0;exitDy=0;entryX=0;entryY=0.75;entryDx=0;entryDy=0;labelBackgroundColor=none;strokeColor=#23445D;fontColor=default;strokeWidth=4;" edge="1" parent="1" source="GgyFdm7DhXLHvmsj2wza-19" target="GgyFdm7DhXLHvmsj2wza-21">
          <mxGeometry relative="1" as="geometry" />
        </mxCell>
        <mxCell id="GgyFdm7DhXLHvmsj2wza-19" value="OUTPUT total harga barang" style="shape=parallelogram;perimeter=parallelogramPerimeter;whiteSpace=wrap;html=1;fixedSize=1;labelBackgroundColor=none;fillColor=#182E3E;strokeColor=#FFFFFF;fontColor=#FFFFFF;strokeWidth=4;" vertex="1" parent="1">
          <mxGeometry x="212.5" y="-340" width="185" height="60" as="geometry" />
        </mxCell>
        <mxCell id="GgyFdm7DhXLHvmsj2wza-24" style="edgeStyle=orthogonalEdgeStyle;rounded=0;orthogonalLoop=1;jettySize=auto;html=1;labelBackgroundColor=none;strokeColor=#23445D;fontColor=default;strokeWidth=4;" edge="1" parent="1" source="GgyFdm7DhXLHvmsj2wza-21">
          <mxGeometry relative="1" as="geometry">
            <mxPoint x="430" y="-942.0000076293944" as="targetPoint" />
            <Array as="points">
              <mxPoint x="740" y="-220" />
              <mxPoint x="740" y="-942" />
            </Array>
          </mxGeometry>
        </mxCell>
        <mxCell id="GgyFdm7DhXLHvmsj2wza-29" style="edgeStyle=orthogonalEdgeStyle;rounded=0;orthogonalLoop=1;jettySize=auto;html=1;exitX=0.5;exitY=1;exitDx=0;exitDy=0;strokeColor=#23445D;labelBackgroundColor=none;fontColor=default;strokeWidth=4;" edge="1" parent="1" source="GgyFdm7DhXLHvmsj2wza-21" target="GgyFdm7DhXLHvmsj2wza-28">
          <mxGeometry relative="1" as="geometry" />
        </mxCell>
        <mxCell id="GgyFdm7DhXLHvmsj2wza-21" value="keluar dari program" style="rounded=0;whiteSpace=wrap;html=1;labelBackgroundColor=none;fillColor=#182E3E;strokeColor=#FFFFFF;fontColor=#FFFFFF;strokeWidth=4;" vertex="1" parent="1">
          <mxGeometry x="340" y="-250" width="130" height="60" as="geometry" />
        </mxCell>
        <mxCell id="GgyFdm7DhXLHvmsj2wza-28" value="END" style="ellipse;whiteSpace=wrap;html=1;labelBackgroundColor=none;fillColor=#182E3E;strokeColor=#FFFFFF;fontColor=#FFFFFF;strokeWidth=4;" vertex="1" parent="1">
          <mxGeometry x="345" y="-130" width="120" height="80" as="geometry" />
        </mxCell>
      </root>
    </mxGraphModel>
  </diagram>
</mxfile>
